<svg width="94" height="60" viewBox="0 0 94 60" fill="none" xmlns="http://www.w3.org/2000/svg">
<g filter="url(#filter0_f_2717:13177)">
<ellipse cx="46.9501" cy="54.5346" rx="42.1108" ry="0.465313" fill="black"/>
</g>
<path d="M9.21306 2.60576C9.21306 1.21804 10.338 0.0930626 11.7257 0.0930626H82.4534C83.8411 0.0930626 84.966 1.21803 84.966 2.60575V51.1844C84.966 51.3386 84.841 51.4636 84.6868 51.4636H9.49225C9.33806 51.4636 9.21306 51.3386 9.21306 51.1844V2.60576Z" fill="#1A202C" stroke="#4A5568" stroke-width="0.186125"/>
<path d="M9.58539 2.51271C9.58539 1.38197 10.502 0.465332 11.6328 0.465332H82.5465C83.6772 0.465332 84.5938 1.38197 84.5938 2.51271V49.6024H9.58539V2.51271Z" fill="black"/>
<rect x="11" y="3" width="71.6582" height="44.67" fill="#FCFCFC"/>
<path fill-rule="evenodd" clip-rule="evenodd" d="M50.3999 16.0414C49.5061 16.2218 48.58 16.7902 48.0439 17.4876C47.8057 17.7973 47.7264 17.9215 47.5769 18.219C47.2972 18.7755 47.1704 19.2928 47.1843 19.8214L47.1929 20.1504L47.5102 20.148C48.762 20.1388 50.0907 19.0188 50.5745 17.565C50.727 17.1068 50.7775 16.7939 50.7675 16.3697C50.7575 15.9518 50.7734 15.9661 50.3999 16.0414ZM49.9883 20.365C49.5017 20.454 49.1716 20.5559 48.431 20.8458C47.3716 21.2603 47.2969 21.2618 46.3335 20.8869C45.7282 20.6513 45.4927 20.5694 45.2135 20.4972C44.4134 20.2904 43.5015 20.4063 42.6599 20.8218C41.2407 21.5225 40.3439 22.8476 40.0568 24.6683C39.9892 25.097 39.9796 26.3361 40.0404 26.7837C40.3137 28.7953 40.9795 30.5041 42.1007 32.0715C42.9593 33.2718 43.5603 33.7976 44.2624 33.9631C44.6507 34.0546 45.1605 33.9753 45.7472 33.7321C46.5896 33.3829 46.8589 33.305 47.3591 33.2656C47.9018 33.2229 48.4008 33.3288 49.1421 33.6442C49.6841 33.8746 49.9479 33.9458 50.3358 33.9662C50.8492 33.9932 51.3237 33.8424 51.757 33.5145C52.4969 32.9547 53.6011 31.3565 54.1525 30.0475C54.3299 29.6264 54.4585 29.2461 54.4356 29.2104C54.4246 29.1931 54.3464 29.1442 54.2619 29.1016C53.927 28.9327 53.5319 28.6384 53.2213 28.3267C52.635 27.7381 52.3088 27.1185 52.1459 26.284C52.0802 25.9475 52.0718 25.2037 52.13 24.8798C52.2288 24.3299 52.5103 23.673 52.8357 23.2328C53.036 22.9618 53.4832 22.5122 53.7356 22.3279C53.8436 22.249 53.9422 22.1667 53.9546 22.1449C54.0109 22.0461 53.3628 21.3609 52.9488 21.0815C52.5075 20.7837 52.0372 20.5822 51.4691 20.4474C51.2069 20.3852 51.0573 20.3703 50.6078 20.3616C50.3086 20.3559 50.0298 20.3574 49.9883 20.365Z" fill="#55555C"/>
<path d="M43.1746 49.8154V50.6953H43.3276V50.0895H43.3357L43.5789 50.6927H43.6932L43.9363 50.0908H43.9445V50.6953H44.0974V49.8154H43.9024L43.6412 50.453H43.6309L43.3697 49.8154H43.1746ZM44.454 50.7086C44.5576 50.7086 44.6194 50.6601 44.6478 50.6047H44.6529V50.6953H44.8024V50.2537C44.8024 50.0792 44.6602 50.0268 44.5344 50.0268C44.3956 50.0268 44.2891 50.0887 44.2547 50.209L44.3999 50.2296C44.4154 50.1845 44.4592 50.1458 44.5352 50.1458C44.6074 50.1458 44.6469 50.1828 44.6469 50.2476V50.2502C44.6469 50.2949 44.6001 50.2971 44.4837 50.3095C44.3556 50.3233 44.2332 50.3615 44.2332 50.5101C44.2332 50.6399 44.3281 50.7086 44.454 50.7086ZM44.4944 50.5944C44.4295 50.5944 44.3831 50.5647 44.3831 50.5076C44.3831 50.4479 44.4351 50.4229 44.5047 50.4131C44.5455 50.4075 44.6272 50.3972 44.6474 50.3808V50.4586C44.6474 50.5321 44.5881 50.5944 44.4944 50.5944ZM45.2467 50.7082C45.4125 50.7082 45.5182 50.6098 45.5294 50.4698H45.3807C45.3674 50.5406 45.3163 50.5815 45.248 50.5815C45.1509 50.5815 45.0881 50.5003 45.0881 50.3654C45.0881 50.2322 45.1522 50.1523 45.248 50.1523C45.3227 50.1523 45.3687 50.2004 45.3807 50.264H45.5294C45.5186 50.1209 45.4069 50.0268 45.2458 50.0268C45.0525 50.0268 44.9305 50.1664 44.9305 50.3679C44.9305 50.5677 45.0495 50.7082 45.2467 50.7082ZM45.6639 50.6953H45.8169V50.5913H45.8259C45.8504 50.6395 45.9015 50.7069 46.0149 50.7069C46.1705 50.7069 46.2869 50.5836 46.2869 50.3662C46.2869 50.1463 46.167 50.0268 46.0145 50.0268C45.8981 50.0268 45.8495 50.0968 45.8259 50.1445H45.8195V49.8154H45.6639V50.6953ZM45.8165 50.3654C45.8165 50.2373 45.8715 50.1544 45.9716 50.1544C46.0751 50.1544 46.1284 50.2425 46.1284 50.3654C46.1284 50.4891 46.0742 50.5793 45.9716 50.5793C45.8723 50.5793 45.8165 50.4934 45.8165 50.3654ZM46.707 50.7082C46.9003 50.7082 47.0232 50.572 47.0232 50.3679C47.0232 50.1634 46.9003 50.0268 46.707 50.0268C46.5136 50.0268 46.3908 50.1634 46.3908 50.3679C46.3908 50.572 46.5136 50.7082 46.707 50.7082ZM46.7078 50.5836C46.6008 50.5836 46.5484 50.4882 46.5484 50.3675C46.5484 50.2468 46.6008 50.1501 46.7078 50.1501C46.8131 50.1501 46.8655 50.2468 46.8655 50.3675C46.8655 50.4882 46.8131 50.5836 46.7078 50.5836ZM47.443 50.7082C47.6363 50.7082 47.7592 50.572 47.7592 50.3679C47.7592 50.1634 47.6363 50.0268 47.443 50.0268C47.2497 50.0268 47.1268 50.1634 47.1268 50.3679C47.1268 50.572 47.2497 50.7082 47.443 50.7082ZM47.4439 50.5836C47.3369 50.5836 47.2845 50.4882 47.2845 50.3675C47.2845 50.2468 47.3369 50.1501 47.4439 50.1501C47.5491 50.1501 47.6015 50.2468 47.6015 50.3675C47.6015 50.4882 47.5491 50.5836 47.4439 50.5836ZM47.8912 50.6953H48.0467V50.4736L48.1034 50.4131L48.3054 50.6953H48.4914L48.2207 50.3203L48.4764 50.0354H48.2946L48.0575 50.3005H48.0467V49.8154H47.8912V50.6953ZM48.887 50.6953H49.0464V50.398H49.2148C49.418 50.398 49.5271 50.276 49.5271 50.1067C49.5271 49.9387 49.4193 49.8154 49.2169 49.8154H48.887V50.6953ZM49.0464 50.267V49.9486H49.1924C49.3119 49.9486 49.3647 50.0131 49.3647 50.1067C49.3647 50.2004 49.3119 50.267 49.1933 50.267H49.0464ZM49.6587 50.6953H49.8142V50.3074C49.8142 50.2236 49.8774 50.1643 49.9628 50.1643C49.9891 50.1643 50.0217 50.169 50.035 50.1733V50.0303C50.0208 50.0277 49.9964 50.026 49.9792 50.026C49.9036 50.026 49.8404 50.0689 49.8163 50.1454H49.8095V50.0354H49.6587V50.6953ZM50.399 50.7082C50.5923 50.7082 50.7152 50.572 50.7152 50.3679C50.7152 50.1634 50.5923 50.0268 50.399 50.0268C50.2057 50.0268 50.0828 50.1634 50.0828 50.3679C50.0828 50.572 50.2057 50.7082 50.399 50.7082ZM50.3999 50.5836C50.2929 50.5836 50.2405 50.4882 50.2405 50.3675C50.2405 50.2468 50.2929 50.1501 50.3999 50.1501C50.5051 50.1501 50.5575 50.2468 50.5575 50.3675C50.5575 50.4882 50.5051 50.5836 50.3999 50.5836Z" fill="#A0AEC0"/>
<path d="M-9.15527e-05 51.3705C-9.15527e-05 51.2677 0.0832396 51.1843 0.186034 51.1843H93.6209C93.7237 51.1843 93.807 51.2677 93.807 51.3705V52.8595H-9.15527e-05V51.3705Z" fill="#A3ACB1"/>
<path d="M-9.15527e-05 51.3705C-9.15527e-05 51.2677 0.0832396 51.1843 0.186034 51.1843H93.6209C93.7237 51.1843 93.807 51.2677 93.807 51.3705V52.8595H-9.15527e-05V51.3705Z" fill="url(#paint0_linear_2717:13177)"/>
<path d="M-6.10352e-05 52.8594H93.807L91.9128 53.2414C89.4902 53.73 87.0249 53.9761 84.5534 53.9761H9.1116C6.39557 53.9761 3.6877 53.6789 1.03635 53.0897L-6.10352e-05 52.8594Z" fill="#647279"/>
<path d="M-6.10352e-05 52.8594H93.807L91.9128 53.2414C89.4902 53.73 87.0249 53.9761 84.5534 53.9761H9.1116C6.39557 53.9761 3.6877 53.6789 1.03635 53.0897L-6.10352e-05 52.8594Z" fill="url(#paint1_linear_2717:13177)"/>
<path fill-rule="evenodd" clip-rule="evenodd" d="M39.1824 51.1843C39.2303 51.9119 39.8356 52.4872 40.5753 52.4872H53.3248C54.0645 52.4872 54.6698 51.9119 54.7177 51.1843H39.1824Z" fill="#96A1A8"/>
<path fill-rule="evenodd" clip-rule="evenodd" d="M39.1824 51.1843C39.2303 51.9119 39.8356 52.4872 40.5753 52.4872H53.3248C54.0645 52.4872 54.6698 51.9119 54.7177 51.1843H39.1824Z" fill="url(#paint2_linear_2717:13177)"/>
<defs>
<filter id="filter0_f_2717:13177" x="0.744478" y="49.9746" width="92.4112" height="9.12018" filterUnits="userSpaceOnUse" color-interpolation-filters="sRGB">
<feFlood flood-opacity="0" result="BackgroundImageFix"/>
<feBlend mode="normal" in="SourceGraphic" in2="BackgroundImageFix" result="shape"/>
<feGaussianBlur stdDeviation="2.04738" result="effect1_foregroundBlur_2717:13177"/>
</filter>
<linearGradient id="paint0_linear_2717:13177" x1="-9.15528e-05" y1="52.0219" x2="93.807" y2="52.0219" gradientUnits="userSpaceOnUse">
<stop stop-color="#0D1012"/>
<stop offset="0.0295345" stop-color="#CAD4DB"/>
<stop offset="0.0625" stop-color="#242729"/>
<stop offset="0.133609" stop-color="#A3ACB1"/>
<stop offset="0.865967" stop-color="#A3ACB1"/>
<stop offset="0.941937" stop-color="#242729"/>
<stop offset="0.971275" stop-color="#CAD4DB"/>
<stop offset="0.996436" stop-color="#0D1012"/>
</linearGradient>
<linearGradient id="paint1_linear_2717:13177" x1="46.9035" y1="52.8594" x2="46.9035" y2="53.9761" gradientUnits="userSpaceOnUse">
<stop stop-color="#7A7F83"/>
<stop offset="1" stop-color="#0B0B0E"/>
</linearGradient>
<linearGradient id="paint2_linear_2717:13177" x1="40.7149" y1="51.9754" x2="53.4644" y2="51.9754" gradientUnits="userSpaceOnUse">
<stop stop-color="#3C3C3C"/>
<stop offset="0.317518" stop-color="#3C3C3C" stop-opacity="0"/>
<stop offset="0.660584" stop-color="#3C3C3C" stop-opacity="0"/>
<stop offset="1" stop-color="#444444"/>
</linearGradient>
</defs>
</svg>
